<?xml version="1.0" encoding="UTF-8"?>
<svg xmlns="http://www.w3.org/2000/svg" viewBox="0 0 1024 1024" width="1024" height="1024" role="img" aria-label="Geekcom Clash icon">
  <path d="M 443.0 152.0 L 448.0 172.0 L 446.0 173.0 L 433.0 163.0 L 449.0 191.0 L 437.0 251.0 L 438.0 272.0 L 444.0 291.0 L 421.0 293.0 L 407.0 300.0 L 392.0 312.0 L 411.0 312.0 L 415.0 315.0 L 392.0 334.0 L 372.0 359.0 L 375.0 360.0 L 394.0 354.0 L 396.0 355.0 L 379.0 374.0 L 364.0 383.0 L 385.0 383.0 L 386.0 385.0 L 367.0 413.0 L 345.0 436.0 L 328.0 458.0 L 302.0 504.0 L 290.0 535.0 L 280.0 581.0 L 279.0 633.0 L 283.0 661.0 L 297.0 708.0 L 310.0 735.0 L 324.0 757.0 L 339.0 776.0 L 360.0 797.0 L 391.0 820.0 L 431.0 840.0 L 477.0 853.0 L 501.0 856.0 L 547.0 856.0 L 578.0 852.0 L 624.0 839.0 L 662.0 820.0 L 684.0 804.0 L 704.0 784.0 L 720.0 762.0 L 735.0 731.0 L 747.0 686.0 L 752.0 642.0 L 751.0 588.0 L 557.0 588.0 L 584.0 643.0 L 628.0 643.0 L 651.0 648.0 L 663.0 655.0 L 673.0 665.0 L 681.0 681.0 L 679.0 683.0 L 670.0 673.0 L 660.0 668.0 L 667.0 684.0 L 670.0 701.0 L 669.0 716.0 L 663.0 736.0 L 659.0 741.0 L 659.0 729.0 L 656.0 720.0 L 652.0 733.0 L 642.0 750.0 L 625.0 768.0 L 612.0 777.0 L 610.0 775.0 L 619.0 763.0 L 600.0 773.0 L 569.0 780.0 L 547.0 780.0 L 534.0 777.0 L 503.0 777.0 L 466.0 770.0 L 447.0 763.0 L 417.0 746.0 L 401.0 733.0 L 380.0 709.0 L 363.0 677.0 L 356.0 647.0 L 359.0 615.0 L 366.0 596.0 L 376.0 580.0 L 378.0 582.0 L 373.0 598.0 L 370.0 620.0 L 371.0 647.0 L 379.0 678.0 L 394.0 706.0 L 409.0 723.0 L 436.0 742.0 L 470.0 755.0 L 502.0 760.0 L 483.0 740.0 L 472.0 720.0 L 466.0 701.0 L 463.0 678.0 L 466.0 638.0 L 470.0 620.0 L 489.0 568.0 L 491.0 552.0 L 490.0 539.0 L 493.0 539.0 L 499.0 552.0 L 502.0 580.0 L 512.0 571.0 L 521.0 553.0 L 522.0 523.0 L 517.0 506.0 L 519.0 505.0 L 530.0 518.0 L 535.0 530.0 L 537.0 542.0 L 546.0 529.0 L 549.0 516.0 L 548.0 498.0 L 542.0 482.0 L 546.0 482.0 L 557.0 492.0 L 562.0 504.0 L 567.0 492.0 L 568.0 481.0 L 566.0 471.0 L 554.0 451.0 L 562.0 451.0 L 577.0 460.0 L 570.0 442.0 L 549.0 423.0 L 546.0 415.0 L 546.0 406.0 L 539.0 413.0 L 537.0 412.0 L 541.0 402.0 L 549.0 394.0 L 566.0 387.0 L 592.0 388.0 L 599.0 385.0 L 607.0 374.0 L 608.0 366.0 L 591.0 374.0 L 581.0 374.0 L 580.0 372.0 L 601.0 367.0 L 613.0 355.0 L 612.0 364.0 L 621.0 346.0 L 620.0 344.0 L 613.0 355.0 L 613.0 348.0 L 606.0 340.0 L 619.0 338.0 L 622.0 333.0 L 600.0 311.0 L 598.0 294.0 L 594.0 286.0 L 583.0 274.0 L 561.0 261.0 L 567.0 232.0 L 567.0 199.0 L 576.0 182.0 L 571.0 183.0 L 573.0 173.0 L 567.0 180.0 L 565.0 167.0 L 560.0 188.0 L 554.0 202.0 L 543.0 219.0 L 522.0 242.0 L 536.0 252.0 L 513.0 250.0 L 487.0 217.0 Z M 550.0 381.0 L 533.0 390.0 L 516.0 396.0 L 514.0 395.0 L 517.0 391.0 L 530.0 384.0 L 546.0 380.0 Z M 540.0 306.0 L 551.0 304.0 L 565.0 305.0 L 570.0 309.0 L 576.0 321.0 L 556.0 319.0 Z M 460.0 202.0 L 478.0 225.0 L 489.0 246.0 L 496.0 265.0 L 494.0 267.0 L 480.0 263.0 L 483.0 270.0 L 470.0 270.0 L 470.0 277.0 L 467.0 284.0 L 462.0 280.0 L 457.0 271.0 L 452.0 252.0 L 453.0 227.0 Z" fill="#F2F6FA" fill-rule="evenodd"/>
</svg>
